# xmcd CD database file
#
# Track frame offsets:
#	150
#	17295
#	34547
#	37897
#	59993
#	88971
#	93262
#	106311
#
# Disc length: 2181 seconds
#
# Revision: 0
# Processed by: cddbd v1.4PL0 Copyright (c) Steve Scherf et al.
# Submitted via: CDex 1.50Beta7
#
DISCID=5b088308
DTITLE=Jez - Jez
DYEAR=2001
DGENRE=Blues
TTITLE0=You're The Shit
TTITLE1=Next Best Thing
TTITLE2=*
TTITLE3=All In
TTITLE4=Lost
TTITLE5=*
TTITLE6=Belly Up
TTITLE7=Denied
EXTD=YEAR: 2001
EXTT0=
EXTT1=
EXTT2=
EXTT3=
EXTT4=
EXTT5=
EXTT6=
EXTT7=
PLAYORDER=
